<svg xmlns="http://www.w3.org/2000/svg" xmlns:xlink="http://www.w3.org/1999/xlink" width="500" zoomAndPan="magnify" viewBox="0 0 375 374.999991" height="500" preserveAspectRatio="xMidYMid meet" version="1.0"><defs><g/></defs><g fill="#ff1616" fill-opacity="1"><g transform="translate(106.174246, 112.499993)"><g><path d="M 32.039062 -22.378906 L 32.21875 -22.621094 C 32.460938 -30.421875 28.441406 -33.121094 15.179688 -33.121094 L 6.121094 -33.121094 C 5.160156 -33.121094 4.800781 -32.519531 4.800781 -31.558594 L 4.800781 -1.558594 C 4.800781 -0.601562 5.160156 0 6.121094 0 L 16.738281 0 C 30.421875 0 34.441406 -2.101562 34.441406 -9.660156 C 34.441406 -16.078125 28.859375 -17.640625 20.460938 -17.640625 Z M 14.820312 -16.859375 C 21.300781 -16.859375 24.359375 -14.820312 24.359375 -8.820312 C 24.359375 -4.078125 21.300781 -0.839844 15.539062 -0.839844 L 14.460938 -0.839844 L 14.460938 -16.859375 Z M 15.179688 -32.28125 C 20.640625 -32.28125 23.878906 -30.71875 23.878906 -24.71875 C 23.878906 -21.898438 21.300781 -17.699219 14.820312 -17.699219 L 14.460938 -17.699219 L 14.460938 -32.28125 Z M 15.179688 -32.28125 "/></g></g></g><g fill="#ff1616" fill-opacity="1"><g transform="translate(170.134206, 112.499993)"><g><path d="M 6.121094 -33.121094 C 5.160156 -33.121094 4.800781 -32.519531 4.800781 -31.558594 L 4.800781 -1.558594 C 4.800781 -0.601562 5.160156 0 6.121094 0 L 29.820312 0 C 30.660156 0 31.140625 -0.601562 31.5 -1.558594 L 35.21875 -10.859375 C 35.339844 -11.160156 35.460938 -11.460938 35.160156 -11.699219 L 34.441406 -12.238281 C 34.320312 -12.359375 34.199219 -12.359375 34.078125 -12.359375 C 33.898438 -12.359375 33.71875 -12.238281 33.480469 -12.121094 L 17.398438 -0.839844 L 15.058594 -0.839844 L 15.058594 -16.5 L 27.898438 -16.199219 L 27.898438 -17.640625 L 15.058594 -17.339844 L 15.058594 -32.28125 L 17.398438 -32.28125 L 27.71875 -23.578125 C 28.558594 -22.921875 29.578125 -22.140625 30.421875 -22.140625 L 30.78125 -22.140625 C 31.738281 -22.140625 32.101562 -22.738281 32.101562 -23.699219 L 32.101562 -31.558594 C 32.101562 -32.519531 31.738281 -33.121094 30.78125 -33.121094 Z M 6.121094 -33.121094 "/></g></g></g><g fill="#ff1616" fill-opacity="1"><g transform="translate(233.254159, 112.499993)"><g><path d="M 21.421875 -31.558594 C 21.058594 -32.398438 20.28125 -33.121094 19.261719 -33.121094 L 16.199219 -33.121094 C 15.359375 -33.121094 14.519531 -32.398438 14.160156 -31.558594 L 0.71875 -1.558594 C 0.421875 -0.78125 0.71875 0 1.679688 0 L 10.320312 0 C 11.578125 0 12.058594 -0.660156 11.640625 -1.558594 L 7.199219 -11.460938 L 19.140625 -11.460938 L 23.578125 -1.558594 C 24 -0.660156 24.660156 0 25.738281 0 L 33.898438 0 C 34.859375 0 35.160156 -0.78125 34.859375 -1.558594 Z M 18.78125 -12.300781 L 6.539062 -12.300781 L 12.601562 -26.160156 Z M 18.78125 -12.300781 "/></g></g></g><g fill="#ff1616" fill-opacity="1"><g transform="translate(44.67425, 196.499987)"><g><path d="M 32.039062 -22.378906 L 32.21875 -22.621094 C 32.460938 -30.421875 28.441406 -33.121094 15.179688 -33.121094 L 6.121094 -33.121094 C 5.160156 -33.121094 4.800781 -32.519531 4.800781 -31.558594 L 4.800781 -1.558594 C 4.800781 -0.601562 5.160156 0 6.121094 0 L 16.738281 0 C 30.421875 0 34.441406 -2.101562 34.441406 -9.660156 C 34.441406 -16.078125 28.859375 -17.640625 20.460938 -17.640625 Z M 14.820312 -16.859375 C 21.300781 -16.859375 24.359375 -14.820312 24.359375 -8.820312 C 24.359375 -4.078125 21.300781 -0.839844 15.539062 -0.839844 L 14.460938 -0.839844 L 14.460938 -16.859375 Z M 15.179688 -32.28125 C 20.640625 -32.28125 23.878906 -30.71875 23.878906 -24.71875 C 23.878906 -21.898438 21.300781 -17.699219 14.820312 -17.699219 L 14.460938 -17.699219 L 14.460938 -32.28125 Z M 15.179688 -32.28125 "/></g></g></g><g fill="#ff1616" fill-opacity="1"><g transform="translate(108.63421, 196.499987)"><g><path d="M 21.421875 -31.558594 C 21.058594 -32.398438 20.28125 -33.121094 19.261719 -33.121094 L 16.199219 -33.121094 C 15.359375 -33.121094 14.519531 -32.398438 14.160156 -31.558594 L 0.71875 -1.558594 C 0.421875 -0.78125 0.71875 0 1.679688 0 L 10.320312 0 C 11.578125 0 12.058594 -0.660156 11.640625 -1.558594 L 7.199219 -11.460938 L 19.140625 -11.460938 L 23.578125 -1.558594 C 24 -0.660156 24.660156 0 25.738281 0 L 33.898438 0 C 34.859375 0 35.160156 -0.78125 34.859375 -1.558594 Z M 18.78125 -12.300781 L 6.539062 -12.300781 L 12.601562 -26.160156 Z M 18.78125 -12.300781 "/></g></g></g><g fill="#ff1616" fill-opacity="1"><g transform="translate(171.034169, 196.499987)"><g><path d="M 32.101562 -9.421875 C 32.101562 -10.378906 31.738281 -10.980469 30.78125 -10.980469 L 30.421875 -10.980469 C 29.578125 -10.980469 28.558594 -10.199219 27.71875 -9.539062 L 17.398438 -0.839844 L 15.058594 -0.839844 L 15.058594 -31.558594 C 15.058594 -32.519531 14.699219 -33.121094 13.738281 -33.121094 L 6.121094 -33.121094 C 5.160156 -33.121094 4.800781 -32.519531 4.800781 -31.558594 L 4.800781 -1.558594 C 4.800781 -0.601562 5.160156 0 6.121094 0 L 30.78125 0 C 31.738281 0 32.101562 -0.601562 32.101562 -1.558594 Z M 32.101562 -9.421875 "/></g></g></g><g fill="#ff1616" fill-opacity="1"><g transform="translate(230.854127, 196.499987)"><g><path d="M 6.121094 -33.121094 C 5.160156 -33.121094 4.800781 -32.519531 4.800781 -31.558594 L 4.800781 -1.558594 C 4.800781 -0.601562 5.160156 0 6.121094 0 L 29.820312 0 C 30.660156 0 31.140625 -0.601562 31.5 -1.558594 L 35.21875 -10.859375 C 35.339844 -11.160156 35.460938 -11.460938 35.160156 -11.699219 L 34.441406 -12.238281 C 34.320312 -12.359375 34.199219 -12.359375 34.078125 -12.359375 C 33.898438 -12.359375 33.71875 -12.238281 33.480469 -12.121094 L 17.398438 -0.839844 L 15.058594 -0.839844 L 15.058594 -16.5 L 27.898438 -16.199219 L 27.898438 -17.640625 L 15.058594 -17.339844 L 15.058594 -32.28125 L 17.398438 -32.28125 L 27.71875 -23.578125 C 28.558594 -22.921875 29.578125 -22.140625 30.421875 -22.140625 L 30.78125 -22.140625 C 31.738281 -22.140625 32.101562 -22.738281 32.101562 -23.699219 L 32.101562 -31.558594 C 32.101562 -32.519531 31.738281 -33.121094 30.78125 -33.121094 Z M 6.121094 -33.121094 "/></g></g></g><g fill="#ff1616" fill-opacity="1"><g transform="translate(293.974068, 196.499987)"><g><path d="M 2.761719 -33.121094 C 2.460938 -33.121094 2.21875 -32.941406 2.21875 -32.699219 L 2.21875 -32.578125 C 2.21875 -32.339844 2.28125 -32.039062 2.640625 -31.558594 L 4.800781 -28.738281 L 4.800781 -1.558594 C 4.800781 -0.601562 5.160156 0 6.121094 0 L 14.699219 0 C 15 0 15.121094 -0.179688 15.121094 -0.421875 L 15.121094 -0.71875 C 15.121094 -1.140625 15.058594 -1.378906 14.699219 -1.921875 L 5.640625 -13.800781 L 5.640625 -27.601562 L 25.558594 -1.558594 C 26.398438 -0.539062 27.179688 0 27.960938 0 L 30.238281 0 C 31.199219 0 31.558594 -0.601562 31.558594 -1.558594 L 31.558594 -31.558594 C 31.558594 -32.519531 31.199219 -33.121094 30.238281 -33.121094 L 23.398438 -33.121094 C 23.101562 -33.121094 22.980469 -32.941406 22.980469 -32.699219 L 22.980469 -32.398438 C 22.980469 -31.980469 22.980469 -31.679688 23.398438 -31.199219 L 30.71875 -21.601562 L 30.71875 -10.859375 L 30.601562 -10.859375 L 14.519531 -31.859375 C 13.738281 -32.761719 13.199219 -33.121094 12.300781 -33.121094 Z M 2.761719 -33.121094 "/></g></g></g><g fill="#ff1616" fill-opacity="1"><g transform="translate(51.717218, 280.499982)"><g><path d="M 20.820312 -20.941406 C 15.960938 -22.320312 13.980469 -24.898438 13.980469 -27.960938 C 13.980469 -31.261719 16.800781 -32.878906 19.921875 -32.878906 L 21.300781 -32.878906 L 28.199219 -24.058594 C 28.921875 -23.101562 29.460938 -22.5 30.121094 -22.5 L 30.539062 -22.5 C 31.199219 -22.5 31.378906 -22.921875 31.378906 -23.578125 L 31.320312 -31.378906 C 31.320312 -32.339844 31.019531 -32.820312 30 -32.941406 L 23.039062 -33.71875 L 19.621094 -33.71875 C 9.300781 -33.71875 3.898438 -29.761719 3.898438 -25.140625 C 3.898438 -19.679688 6.121094 -16.679688 17.039062 -13.378906 C 22.378906 -11.761719 23.160156 -10.019531 23.160156 -6.660156 C 23.160156 -3.359375 21.179688 -0.238281 17.21875 -0.238281 L 16.019531 -0.238281 L 7.320312 -12 C 6.601562 -12.960938 6.058594 -13.558594 5.398438 -13.558594 L 4.980469 -13.558594 C 4.320312 -13.558594 4.140625 -13.140625 4.140625 -12.480469 L 4.199219 -1.558594 C 4.199219 -0.601562 4.558594 -0.0585938 5.519531 0 L 14.28125 0.601562 L 17.519531 0.601562 C 27.179688 0.601562 33.121094 -2.398438 33.121094 -9.601562 C 33.121094 -15.898438 29.101562 -18.601562 20.820312 -20.941406 Z M 20.820312 -20.941406 "/></g></g></g><g fill="#ff1616" fill-opacity="1"><g transform="translate(114.657178, 280.499982)"><g><path d="M 19.558594 0.601562 C 28.980469 0.601562 31.738281 -4.019531 31.738281 -13.980469 L 31.738281 -31.558594 C 31.738281 -32.519531 31.378906 -33.121094 30.421875 -33.121094 L 23.699219 -33.121094 C 23.398438 -33.121094 23.28125 -32.941406 23.28125 -32.699219 L 23.28125 -25.738281 C 23.28125 -25.320312 23.28125 -25.019531 23.699219 -24.539062 L 31.019531 -14.941406 L 31.019531 -13.980469 C 31.019531 -3.78125 27.300781 -0.238281 20.578125 -0.238281 L 19.558594 -0.238281 C 16.320312 -0.238281 14.578125 -2.820312 14.578125 -13.980469 L 14.578125 -31.558594 C 14.578125 -32.519531 14.21875 -33.121094 13.261719 -33.121094 L 4.621094 -33.121094 C 3.660156 -33.121094 3.300781 -32.519531 3.300781 -31.558594 L 3.300781 -13.980469 C 3.300781 -4.019531 7.679688 0.601562 19.558594 0.601562 Z M 19.558594 0.601562 "/></g></g></g><g fill="#ff1616" fill-opacity="1"><g transform="translate(176.517136, 280.499982)"><g><path d="M 20.820312 -20.941406 C 15.960938 -22.320312 13.980469 -24.898438 13.980469 -27.960938 C 13.980469 -31.261719 16.800781 -32.878906 19.921875 -32.878906 L 21.300781 -32.878906 L 28.199219 -24.058594 C 28.921875 -23.101562 29.460938 -22.5 30.121094 -22.5 L 30.539062 -22.5 C 31.199219 -22.5 31.378906 -22.921875 31.378906 -23.578125 L 31.320312 -31.378906 C 31.320312 -32.339844 31.019531 -32.820312 30 -32.941406 L 23.039062 -33.71875 L 19.621094 -33.71875 C 9.300781 -33.71875 3.898438 -29.761719 3.898438 -25.140625 C 3.898438 -19.679688 6.121094 -16.679688 17.039062 -13.378906 C 22.378906 -11.761719 23.160156 -10.019531 23.160156 -6.660156 C 23.160156 -3.359375 21.179688 -0.238281 17.21875 -0.238281 L 16.019531 -0.238281 L 7.320312 -12 C 6.601562 -12.960938 6.058594 -13.558594 5.398438 -13.558594 L 4.980469 -13.558594 C 4.320312 -13.558594 4.140625 -13.140625 4.140625 -12.480469 L 4.199219 -1.558594 C 4.199219 -0.601562 4.558594 -0.0585938 5.519531 0 L 14.28125 0.601562 L 17.519531 0.601562 C 27.179688 0.601562 33.121094 -2.398438 33.121094 -9.601562 C 33.121094 -15.898438 29.101562 -18.601562 20.820312 -20.941406 Z M 20.820312 -20.941406 "/></g></g></g><g fill="#ff1616" fill-opacity="1"><g transform="translate(239.457096, 280.499982)"><g><path d="M 6.539062 -33.121094 C 5.578125 -33.121094 5.21875 -32.519531 5.21875 -31.558594 L 5.21875 -1.558594 C 5.21875 -0.601562 5.578125 0 6.539062 0 L 14.160156 0 C 15.121094 0 15.480469 -0.601562 15.480469 -1.558594 L 15.480469 -31.558594 C 15.480469 -32.519531 15.121094 -33.121094 14.160156 -33.121094 Z M 4.800781 -41.878906 C 4.800781 -38.820312 7.261719 -36.359375 10.320312 -36.359375 C 13.378906 -36.359375 15.839844 -38.820312 15.839844 -41.878906 C 15.839844 -44.941406 13.378906 -47.398438 10.320312 -47.398438 C 7.261719 -47.398438 4.800781 -44.941406 4.800781 -41.878906 Z M 4.800781 -41.878906 "/></g></g></g><g fill="#ff1616" fill-opacity="1"><g transform="translate(286.917069, 280.499982)"><g><path d="M 2.761719 -33.121094 C 2.460938 -33.121094 2.21875 -32.941406 2.21875 -32.699219 L 2.21875 -32.578125 C 2.21875 -32.339844 2.28125 -32.039062 2.640625 -31.558594 L 4.800781 -28.738281 L 4.800781 -1.558594 C 4.800781 -0.601562 5.160156 0 6.121094 0 L 14.699219 0 C 15 0 15.121094 -0.179688 15.121094 -0.421875 L 15.121094 -0.71875 C 15.121094 -1.140625 15.058594 -1.378906 14.699219 -1.921875 L 5.640625 -13.800781 L 5.640625 -27.601562 L 25.558594 -1.558594 C 26.398438 -0.539062 27.179688 0 27.960938 0 L 30.238281 0 C 31.199219 0 31.558594 -0.601562 31.558594 -1.558594 L 31.558594 -31.558594 C 31.558594 -32.519531 31.199219 -33.121094 30.238281 -33.121094 L 23.398438 -33.121094 C 23.101562 -33.121094 22.980469 -32.941406 22.980469 -32.699219 L 22.980469 -32.398438 C 22.980469 -31.980469 22.980469 -31.679688 23.398438 -31.199219 L 30.71875 -21.601562 L 30.71875 -10.859375 L 30.601562 -10.859375 L 14.519531 -31.859375 C 13.738281 -32.761719 13.199219 -33.121094 12.300781 -33.121094 Z M 2.761719 -33.121094 "/></g></g></g></svg>